<?xml version="1.0" encoding="UTF-8"?>
<svg version="1.1" xmlns="http://www.w3.org/2000/svg" width="1081" height="844">
<path d="M0 0 C45.54 0 91.08 0 138 0 C138.0093457 10.42787109 138.01869141 20.85574219 138.02832031 31.59960938 C138.06105757 64.99984145 138.11336385 98.40001739 138.17792095 131.80020252 C138.1879379 136.99196416 138.19778211 142.18372611 138.20751953 147.37548828 C138.2094609 148.40903464 138.21140228 149.442581 138.21340248 150.50744694 C138.24438752 167.22230538 138.26139336 183.9371501 138.27319422 200.65203184 C138.28562391 217.81477646 138.3131663 234.97744933 138.35461307 252.14014864 C138.37969645 262.72261357 138.39312105 273.30495943 138.39142957 283.88745451 C138.39139972 291.1533242 138.40610589 298.41907298 138.43216428 305.68489552 C138.4467502 309.87115415 138.45506512 314.05716489 138.44580269 318.24344444 C138.43744267 322.08718281 138.44786775 325.93042571 138.47233662 329.77409106 C138.48060118 331.8002593 138.46956388 333.82647905 138.45750165 335.85262823 C138.5717312 348.23188224 141.10869993 360.52845172 146.625 371.6875 C146.96200928 372.38536621 147.29901855 373.08323242 147.64624023 373.80224609 C151.22504205 380.91439432 155.80774284 386.99699173 161 393 C161.54914063 393.6496875 162.09828125 394.299375 162.6640625 394.96875 C181.01731232 414.92202673 207.95275026 424.50792372 234.37890625 426.21875 C262.94388366 427.01314103 287.16564446 416.69700186 309 399 C309.65355469 398.51273437 310.30710937 398.02546875 310.98046875 397.5234375 C326.46209536 385.53528958 336.72965362 364.92903475 340 346 C340.0894609 344.04772167 340.12830552 342.09279281 340.13028526 340.13846684 C340.13572178 338.3682278 340.13572178 338.3682278 340.14126813 336.56222636 C340.14019988 335.26963371 340.13913163 333.97704105 340.13803101 332.64527893 C340.14044982 331.25518127 340.14331232 329.86508432 340.14658034 328.4749884 C340.15432814 324.65553478 340.15595247 320.83609914 340.15663147 317.01663864 C340.15847211 312.89727665 340.16607942 308.77792516 340.17311096 304.65856934 C340.18463411 297.52028599 340.19287965 290.382005 340.19923019 283.24371529 C340.20955631 271.96299304 340.23011921 260.68230024 340.25234985 249.40159607 C340.25982939 245.54241667 340.26724312 241.68323714 340.27463722 237.82405758 C340.27741307 236.37741874 340.27741307 236.37741874 340.280245 234.90155487 C340.30117013 223.92452577 340.32000011 212.94749342 340.33789062 201.97045898 C340.33952881 200.96702318 340.34116699 199.96358737 340.34285481 198.92974441 C340.36915184 182.6611067 340.38778925 166.39246672 340.40448253 150.12381674 C340.42189489 133.42427946 340.45072961 116.72478681 340.4893719 100.02528518 C340.51278464 89.72269741 340.52676761 79.42018236 340.52869953 69.11756777 C340.53080673 62.05975109 340.54371766 55.00200682 340.56517886 47.94422264 C340.57722174 43.87059127 340.58434997 39.79710368 340.57846642 35.72345543 C340.57317719 31.99462464 340.5816262 28.26608734 340.60102279 24.53730559 C340.60777419 22.5487182 340.59976689 20.56009764 340.59124506 18.57151705 C340.6000849 17.38874994 340.60892474 16.20598284 340.61803246 14.98737431 C340.61938898 13.96863698 340.62074551 12.94989966 340.62214315 11.9002915 C341.19401119 7.51084079 342.75578415 4.13163458 346.03813171 1.14628601 C350.47988145 -0.5727356 354.66767095 -0.39235587 359.38989258 -0.34057617 C360.45109912 -0.34093778 361.51230566 -0.34129938 362.60566998 -0.34167194 C366.03548333 -0.33943554 369.46480556 -0.31660193 372.89453125 -0.29296875 C375.01411707 -0.28855707 377.13370615 -0.28549704 379.2532959 -0.28381348 C387.10641382 -0.2680945 394.95946175 -0.22621079 402.8125 -0.1875 C420.364375 -0.125625 437.91625 -0.06375 456 0 C456.33 38.28 456.66 76.56 457 116 C459.97 111.71 462.94 107.42 466 103 C470.67666134 96.93495483 475.5466067 91.16408769 480.7109375 85.51171875 C482.25260229 83.8200968 483.77845444 82.11394349 485.2890625 80.39453125 C489.22952008 75.91920056 493.19138639 71.70459511 497.765625 67.875 C499.38850407 66.51314344 500.97838073 65.11165431 502.546875 63.6875 C542.89957077 27.81843709 595.3204957 9.47691721 648 2 C648.82322754 1.87995605 649.64645508 1.75991211 650.49462891 1.63623047 C678.1235981 -2.18546368 708.38994063 -1.73341975 736 2 C737.04333496 2.12890625 738.08666992 2.2578125 739.16162109 2.390625 C793.0875696 9.05710368 851.07882802 25.62259369 890 66 C888.38387835 69.92353234 885.68670835 72.71400006 882.8125 75.75 C881.80658908 76.82877238 880.80137925 77.90819893 879.796875 78.98828125 C879.31154297 79.5085791 878.82621094 80.02887695 878.32617188 80.56494141 C876.70049666 82.32409438 875.12573605 84.1227532 873.5625 85.9375 C869.98062691 90.069109 866.26162042 94.06929927 862.54541016 98.07958984 C858.75112961 102.17693929 855.00453553 106.31410773 851.27734375 110.47265625 C848.2347706 113.849234 845.15881256 117.19480481 842.08349609 120.54150391 C839.22383388 123.65651092 836.38476963 126.78860242 833.5625 129.9375 C831.02371326 132.77010654 828.46647642 135.58309454 825.87890625 138.37109375 C825.07054321 139.24229858 825.07054321 139.24229858 824.24584961 140.13110352 C823.18980303 141.26731992 822.13210284 142.40200232 821.07250977 143.53491211 C818.54694117 146.25162748 816.14891083 148.97398271 814 152 C811.39720793 150.72030885 808.85546079 149.3766224 806.33984375 147.93359375 C780.43722364 133.20441934 754.46184792 123.12499122 725 118 C724.2898877 117.86867676 723.57977539 117.73735352 722.84814453 117.60205078 C679.49033499 109.81315731 626.1449514 117.82093101 589.43359375 142.7421875 C587.21069929 144.41998958 585.10099714 146.1723668 583 148 C581.80503906 148.99773437 581.80503906 148.99773437 580.5859375 150.015625 C550.83198657 175.62428865 534.6697636 217.05214424 530.3125 255.3125 C527.19598388 299.54050537 537.59271849 344.75474325 566.55859375 379.02734375 C584.11807177 399.09946567 606.98403152 412.55659801 632 421.375 C632.65033203 421.61387939 633.30066406 421.85275879 633.97070312 422.09887695 C649.55125491 427.27802332 666.93287291 426.37264708 683.11669922 426.37060547 C686.96497492 426.37496036 690.81208355 426.41134305 694.66015625 426.44921875 C715.09233508 426.54284289 735.08646928 424.60469411 754.75 418.8125 C755.75877197 418.5242334 756.76754395 418.2359668 757.80688477 417.93896484 C768.90822543 414.63854278 779.64256309 410.17871846 790 405 C790.33 388.83 790.66 372.66 791 356 C775.4731074 356.15806099 775.4731074 356.15806099 759.94677734 356.36035156 C757.99317296 356.37203939 756.03955881 356.38223099 754.0859375 356.390625 C753.08022705 356.41108887 752.0745166 356.43155273 751.03833008 356.45263672 C745.01974137 356.45562435 741.59214146 356.00090676 737 352 C734.71749888 349.09499857 734.50832981 345.91742476 734.63671875 342.26171875 C736.33518924 331.68737022 744.9411413 322.69497059 753.19921875 316.515625 C783.76665913 295.07814401 823.63910631 298.2340688 859 300 C851.97142261 292.49037929 845.294819 286.6474095 836 282 C836 281.34 836 280.68 836 280 C837.12535156 279.90203125 838.25070312 279.8040625 839.41015625 279.703125 C866.41410663 277.16262177 889.23041994 267.87096278 909 249 C909.61359375 248.46117187 910.2271875 247.92234375 910.859375 247.3671875 C918.3329504 240.54497876 923.65745632 231.02864304 928 222 C928.66 222 929.32 222 930 222 C930.07014609 238.04667514 930.12301555 254.09330039 930.15543652 270.1400919 C930.17089166 277.59124954 930.19195519 285.04231179 930.22631836 292.4934082 C930.25626228 298.98937083 930.27558484 305.48526436 930.28226548 311.9812941 C930.28616933 315.41948149 930.29531537 318.85747125 930.31719017 322.29559517 C930.34143746 326.13793713 930.34196678 329.98008744 930.34057617 333.82250977 C930.35675491 335.52399673 930.35675491 335.52399673 930.3732605 337.25985718 C930.34982347 343.24402662 930.1635259 347.83157013 927 353 C923.07596832 356.43614142 919.17934207 356.37379841 914.1875 356.1875 C913.49462891 356.17396484 912.80175781 356.16042969 912.08789062 356.14648438 C910.39158735 356.11138845 908.69568864 356.05758943 907 356 C907.00737434 356.6911449 907.01474869 357.38228979 907.0223465 358.09437847 C907.19902234 374.91157376 907.33140468 391.72847514 907.41449738 408.54638195 C907.45574874 416.67945368 907.51198662 424.81190596 907.60351562 432.94458008 C907.68325511 440.03309375 907.73486566 447.12115887 907.75270796 454.21010858 C907.76313829 457.96393729 907.7876443 461.7164828 907.84584045 465.46990013 C907.91028713 469.66044381 907.91191938 473.8487574 907.90820312 478.03979492 C907.93696533 479.28416824 907.96572754 480.52854156 907.99536133 481.81062317 C907.91631599 490.02460614 907.91631599 490.02460614 905.25760174 492.85473633 C903.20965349 494.15972897 901.25594314 495.11332114 899 496 C898.06454346 496.49322754 897.12908691 496.98645508 896.1652832 497.49462891 C807.55352829 539.24781924 709.92478669 552.5838289 589 528 C580.55618572 524.93221233 572.25692426 521.53667133 564 518 C563.19256348 517.65565918 562.38512695 517.31131836 561.55322266 516.95654297 C538.43636978 506.96075277 516.71735539 492.74392295 498.484375 475.3671875 C496.39962983 473.38077937 494.27578215 471.5258046 492.0625 469.6875 C473.71506963 453.60518449 459.97101685 433.05166097 448 412 C447.60844727 412.97271851 447.60844727 412.97271851 447.20898438 413.96508789 C426.94461029 464.07150322 395.04815168 501.32328113 345.3984375 523.6171875 C322.31253483 533.32433176 296.85875267 538.54349598 272 541 C271.14100098 541.08540039 270.28200195 541.17080078 269.39697266 541.25878906 C259.27074214 542.15897014 249.15864555 542.24329267 239 542.25 C238.07647736 542.25067474 237.15295471 542.25134949 236.20144653 542.25204468 C219.9728719 542.23332014 204.07115497 541.43089007 188 539 C186.9574707 538.8443457 185.91494141 538.68869141 184.84082031 538.52832031 C143.53827415 532.0395854 106.30147687 514.86257992 76 486 C75.24203125 485.30648438 74.4840625 484.61296875 73.703125 483.8984375 C48.97040524 460.51969875 33.8736992 427.20846886 26.75 394.375 C26.59885742 393.6847876 26.44771484 392.9945752 26.29199219 392.28344727 C22.95899042 375.83474497 22.71950141 359.55738448 22.77294922 342.84545898 C22.77351444 340.35037236 22.77319462 337.85528541 22.77206421 335.36019897 C22.7716116 330.02278052 22.77721303 324.68542307 22.78853989 319.34802055 C22.8049051 311.63137008 22.81001406 303.91474315 22.81251587 296.19807721 C22.81687584 283.67346049 22.83013847 271.14887006 22.84912109 258.62426758 C22.86752412 246.46932098 22.88165888 234.31438157 22.89013672 222.15942383 C22.89066217 221.40818025 22.89118761 220.65693666 22.89172898 219.88292813 C22.89433936 216.11355893 22.8968667 212.34418968 22.89935279 208.5748204 C22.92003233 177.38319449 22.95536148 146.19160127 23 115 C21.46279297 115.05220703 21.46279297 115.05220703 19.89453125 115.10546875 C18.53387064 115.13362035 17.1731922 115.16091904 15.8125 115.1875 C15.13896484 115.21263672 14.46542969 115.23777344 13.77148438 115.26367188 C9.29060958 115.32924565 6.55289238 114.75514057 3 112 C-0.67617475 106.79368551 -0.40861302 101.711497 -0.34057617 95.58837891 C-0.34093778 94.53696402 -0.34129938 93.48554913 -0.34167194 92.40227318 C-0.33943875 89.01017368 -0.31661995 85.61857315 -0.29296875 82.2265625 C-0.28855607 80.12785073 -0.28549666 78.02913566 -0.28381348 75.93041992 C-0.26810605 68.16189616 -0.22622228 60.39344314 -0.1875 52.625 C-0.0946875 26.575625 -0.0946875 26.575625 0 0 Z " fill="#149FC5" transform="translate(75,0)"/>
<path d="M0 0 C1.04333496 0.12890625 2.08666992 0.2578125 3.16162109 0.390625 C57.0875696 7.05710368 115.07882802 23.62259369 154 64 C152.38387835 67.92353234 149.68670835 70.71400006 146.8125 73.75 C145.80658908 74.82877238 144.80137925 75.90819893 143.796875 76.98828125 C143.31154297 77.5085791 142.82621094 78.02887695 142.32617188 78.56494141 C140.70049666 80.32409438 139.12573605 82.1227532 137.5625 83.9375 C133.98062691 88.069109 130.26162042 92.06929927 126.54541016 96.07958984 C122.75112961 100.17693929 119.00453553 104.31410773 115.27734375 108.47265625 C112.2347706 111.849234 109.15881256 115.19480481 106.08349609 118.54150391 C103.22383388 121.65651092 100.38476963 124.78860242 97.5625 127.9375 C95.02371326 130.77010654 92.46647642 133.58309454 89.87890625 136.37109375 C89.33999756 136.95189697 88.80108887 137.5327002 88.24584961 138.13110352 C87.18980303 139.26731992 86.13210284 140.40200232 85.07250977 141.53491211 C82.54694117 144.25162748 80.14891083 146.97398271 78 150 C75.39720793 148.72030885 72.85546079 147.3766224 70.33984375 145.93359375 C44.43722364 131.20441934 18.46184792 121.12499122 -11 116 C-11.7101123 115.86867676 -12.42022461 115.73735352 -13.15185547 115.60205078 C-56.50966501 107.81315731 -109.8550486 115.82093101 -146.56640625 140.7421875 C-148.78930071 142.41998958 -150.89900286 144.1723668 -153 146 C-153.79664063 146.66515625 -154.59328125 147.3303125 -155.4140625 148.015625 C-185.16801343 173.62428865 -201.3302364 215.05214424 -205.6875 253.3125 C-208.80401612 297.54050537 -198.40728151 342.75474325 -169.44140625 377.02734375 C-149.56737613 399.74521469 -123.51212079 413.19625744 -95 422 C-95 422.33 -95 422.66 -95 423 C-145.04560551 421.86024501 -201.54351602 390.78045915 -237.5234375 357.2890625 C-239.61682183 355.35416784 -241.75082207 353.51423094 -243.9375 351.6875 C-270.21302076 328.66971657 -290.01877787 295.53212353 -302.20117188 263.12207031 C-302.74695015 261.67222168 -303.3034491 260.22637526 -303.86914062 258.78417969 C-308.01674281 248.18023381 -311.00742023 237.50006101 -313.4375 226.375 C-313.69668213 225.20155029 -313.95586426 224.02810059 -314.22290039 222.8190918 C-316.42775233 212.20686902 -316.53080353 203.43462552 -313.875 192.9375 C-313.64981689 192.02701904 -313.42463379 191.11653809 -313.19262695 190.1784668 C-306.91714006 165.5433621 -295.92625393 141.38590699 -282.23461914 119.99926758 C-280.92578455 117.87981999 -279.74733468 115.71464582 -278.5703125 113.51953125 C-276.04612587 108.92858074 -273.08681798 104.81843073 -269.875 100.6875 C-269.30950439 99.95402344 -268.74400879 99.22054687 -268.16137695 98.46484375 C-263.85151212 92.94126401 -259.29933546 87.73732133 -254.4921875 82.64453125 C-252.19779345 80.20988427 -249.99907581 77.71865293 -247.8125 75.1875 C-244.82509948 71.82065143 -241.71602072 68.80309866 -238.26953125 65.91015625 C-236.63458458 64.53409958 -235.03120554 63.12022188 -233.44921875 61.68359375 C-193.09412875 25.81834158 -140.67935292 7.47689572 -88 0 C-87.17677246 -0.12004395 -86.35354492 -0.24008789 -85.50537109 -0.36376953 C-57.8764019 -4.18546368 -27.61005937 -3.73341975 0 0 Z " fill="#075DA0" transform="translate(811,2)"/>
<path d="M0 0 C0.66 0 1.32 0 2 0 C2.07516846 0.81452637 2.15033691 1.62905273 2.2277832 2.46826172 C4.32358015 25.34093856 4.32358015 25.34093856 8 48 C8.23976563 49.2684375 8.47953125 50.536875 8.7265625 51.84375 C12.84562706 72.10127926 20.45835833 91.93243298 29.59594727 110.41235352 C34.23375747 119.93719224 34.23375747 119.93719224 32.37597656 126.05493164 C31.51455602 128.5111232 30.5584589 130.9077591 29.5625 133.3125 C29.20414063 134.18970703 28.84578125 135.06691406 28.4765625 135.97070312 C9.25240148 182.03551802 -26.55842723 215.93891929 -72.1875 235.125 C-104.88742048 247.81090995 -129.28813296 248.37128065 -162 236 C-163.04099854 235.60723877 -163.04099854 235.60723877 -164.10302734 235.20654297 C-183.07832475 227.9044912 -200.90033303 216.95007803 -215.76171875 203.0859375 C-217.85454366 201.13555617 -220.00298541 199.28368633 -222.1875 197.4375 C-226.19471182 193.92619064 -229.63560629 190.125882 -233 186 C-234.12535156 184.63101563 -234.12535156 184.63101563 -235.2734375 183.234375 C-261.05904653 150.86001414 -276.3631477 110.86438313 -276.0625 69.375 C-276.05798828 68.18003906 -276.05347656 66.98507812 -276.04882812 65.75390625 C-276.03715603 62.83588353 -276.02078326 59.91796963 -276 57 C-275.67 57 -275.34 57 -275 57 C-274.8040625 57.95777344 -274.608125 58.91554688 -274.40625 59.90234375 C-270.79607114 76.41230806 -264.05399121 90.2199703 -253 103 C-252.45085937 103.6496875 -251.90171875 104.299375 -251.3359375 104.96875 C-232.98268768 124.92202673 -206.04724974 134.50792372 -179.62109375 136.21875 C-151.05611634 137.01314103 -126.83435554 126.69700186 -105 109 C-104.34644531 108.51273437 -103.69289063 108.02546875 -103.01953125 107.5234375 C-88.7608254 96.48225435 -79.24015088 78.17051199 -75 61 C-74.91403564 60.25903076 -74.82807129 59.51806152 -74.73950195 58.75463867 C-73.89172574 52.7416278 -73.89172574 52.7416278 -71.42773438 50.69238281 C-69.30114572 49.64178454 -67.17955686 48.83639377 -64.9375 48.0625 C-63.28962139 47.41074437 -61.64514213 46.75033813 -60.00390625 46.08203125 C-59.16746582 45.74510254 -58.33102539 45.40817383 -57.46923828 45.06103516 C-39.62577672 37.39367467 -23.84164996 24.38984536 -10 11 C-8.78957031 9.83210938 -8.78957031 9.83210938 -7.5546875 8.640625 C-4.70976598 5.84668773 -2.2185185 3.32777775 0 0 Z " fill="#075DA0" transform="translate(489,290)"/>
<path d="M0 0 C0.66 0 1.32 0 2 0 C2.07014609 16.04667514 2.12301555 32.09330039 2.15543652 48.1400919 C2.17089166 55.59124954 2.19195519 63.04231179 2.22631836 70.4934082 C2.25626228 76.98937083 2.27558484 83.48526436 2.28226548 89.9812941 C2.28616933 93.41948149 2.29531537 96.85747125 2.31719017 100.29559517 C2.34143746 104.13793713 2.34196678 107.98008744 2.34057617 111.82250977 C2.351362 112.95683441 2.36214783 114.09115906 2.3732605 115.25985718 C2.34982347 121.24402662 2.1635259 125.83157013 -1 131 C-4.92403168 134.43614142 -8.82065793 134.37379841 -13.8125 134.1875 C-14.50537109 134.17396484 -15.19824219 134.16042969 -15.91210938 134.14648438 C-17.60841265 134.11138845 -19.30431136 134.05758943 -21 134 C-20.99262566 134.6911449 -20.98525131 135.38228979 -20.9776535 136.09437847 C-20.80097766 152.91157376 -20.66859532 169.72847514 -20.58550262 186.54638195 C-20.54425126 194.67945368 -20.48801338 202.81190596 -20.39648438 210.94458008 C-20.31674489 218.03309375 -20.26513434 225.12115887 -20.24729204 232.21010858 C-20.23686171 235.96393729 -20.2123557 239.7164828 -20.15415955 243.46990013 C-20.08971287 247.66044381 -20.08808062 251.8487574 -20.09179688 256.03979492 C-20.06303467 257.28416824 -20.03427246 258.52854156 -20.00463867 259.81062317 C-20.08368401 268.02460614 -20.08368401 268.02460614 -22.74239826 270.85473633 C-24.79034651 272.15972897 -26.74405686 273.11332114 -29 274 C-29.93545654 274.49322754 -30.87091309 274.98645508 -31.8347168 275.49462891 C-61.42533143 289.43750326 -91.84275023 301.02829077 -123.80078125 308.23046875 C-124.98305298 308.50000366 -126.16532471 308.76953857 -127.38342285 309.04724121 C-130.25489637 309.70139991 -133.12706969 310.35227509 -136 311 C-136.13286974 295.15715771 -136.2633112 279.31429719 -136.39115143 263.47141361 C-136.45061283 256.10894418 -136.51076956 248.74648186 -136.57275391 241.3840332 C-136.87369144 205.58879267 -137.08271626 169.79689146 -137 134 C-137.64607901 134.00683681 -138.29215801 134.01367363 -138.95781517 134.02071762 C-140.31558036 134.03508551 -140.31558036 134.03508551 -141.70077515 134.04974365 C-142.6991572 134.06034946 -143.69753925 134.07095528 -144.72617531 134.08188248 C-146.90581739 134.10486445 -149.08546301 134.12751337 -151.26511192 134.14983749 C-158.01420864 134.2186522 -158.01420864 134.2186522 -164.76300049 134.31164551 C-167.81357854 134.35680405 -170.86320757 134.37751657 -173.9140625 134.390625 C-174.91977295 134.41108887 -175.9254834 134.43155273 -176.96166992 134.45263672 C-182.98025863 134.45562435 -186.40785854 134.00090676 -191 130 C-193.28250112 127.09499857 -193.49167019 123.91742476 -193.36328125 120.26171875 C-191.66481076 109.68737022 -183.0588587 100.69497059 -174.80078125 94.515625 C-144.23334087 73.07814401 -104.36089369 76.2340688 -69 78 C-76.02857739 70.49037929 -82.705181 64.6474095 -92 60 C-92 59.34 -92 58.68 -92 58 C-90.87464844 57.90203125 -89.74929688 57.8040625 -88.58984375 57.703125 C-61.58589337 55.16262177 -38.76958006 45.87096278 -19 27 C-18.38640625 26.46117187 -17.7728125 25.92234375 -17.140625 25.3671875 C-9.6670496 18.54497876 -4.34254368 9.02864304 0 0 Z " fill="#16B8DD" transform="translate(1003,222)"/>
<path d="M0 0 C1.04436218 -0.00043808 2.08872437 -0.00087616 3.16473389 -0.00132751 C6.61155996 0.00076 10.05789772 0.02408998 13.50463867 0.04760742 C15.89645624 0.05320349 18.28827725 0.05747354 20.68009949 0.06047058 C26.97168491 0.07191842 33.26306218 0.10138539 39.55456543 0.13458252 C45.97604558 0.16528452 52.39755939 0.17897622 58.8190918 0.1940918 C71.41618575 0.22625489 84.01313551 0.27687312 96.61010742 0.34057617 C96.89228565 15.62331132 97.10293418 30.9059257 97.23185349 46.19069195 C97.29334572 53.29029369 97.37693818 60.38826355 97.51538086 67.48681641 C97.63620083 73.68481126 97.71268458 79.88162321 97.73916936 86.08076316 C97.75461905 89.35442436 97.796657 92.62397771 97.8788681 95.89673424 C98.29622588 113.21994877 96.05364789 124.64013039 86.14510345 138.97150612 C63.65972723 173.67480848 56.56523441 218.82406303 56.52026367 259.38354492 C56.51507217 260.32358871 56.50988068 261.26363251 56.50453186 262.23216248 C56.48040893 266.87534169 56.50088903 271.50972825 56.60351562 276.15185547 C56.71484284 290.24721355 56.71484284 290.24721355 51.33666992 296.26635742 C49.78811503 297.65509991 48.21257261 299.01440376 46.61010742 300.34057617 C45.09493258 301.93041764 43.59315634 303.53322538 42.11010742 305.15307617 C26.62116557 320.42589326 8.02164649 330.93916875 -11.38989258 340.34057617 C-12.13883789 340.74405273 -12.8877832 341.1475293 -13.65942383 341.56323242 C-15.38989258 342.34057617 -15.38989258 342.34057617 -18.38989258 342.34057617 C-18.45853373 300.02048756 -18.51140867 257.70040537 -18.54308857 215.38027214 C-18.54684076 210.38592027 -18.55072372 205.39156851 -18.5546875 200.3972168 C-18.55547443 199.40291594 -18.55626136 198.40861508 -18.55707214 197.3841839 C-18.5701321 181.27686959 -18.5937892 165.16958736 -18.62135097 149.06229208 C-18.64938873 132.53922379 -18.66606539 116.01617232 -18.67215806 99.49308121 C-18.67627788 89.29444569 -18.68929798 79.0959008 -18.71364198 68.89729317 C-18.72947906 61.90719999 -18.73429754 54.91715378 -18.73039671 47.92704396 C-18.728472 43.8919075 -18.73145768 39.8569296 -18.747509 35.82182121 C-18.76209568 32.12797872 -18.76285308 28.4344016 -18.75258926 24.74054696 C-18.75071927 22.77058561 -18.7636691 20.80062744 -18.7771365 18.83071125 C-18.72232237 8.07630658 -18.72232237 8.07630658 -15.38989258 3.34057617 C-10.94081582 -0.7059316 -5.6775893 -0.0623249 0 0 Z " fill="#15B7DC" transform="translate(434.389892578125,-0.340576171875)"/>
<path d="M0 0 C49.66909363 5.11637654 104.70368839 25.38307809 140 62 C138.38387835 65.92353234 135.68670835 68.71400006 132.8125 71.75 C131.80658908 72.82877238 130.80137925 73.90819893 129.796875 74.98828125 C129.31154297 75.5085791 128.82621094 76.02887695 128.32617188 76.56494141 C126.70049666 78.32409438 125.12573605 80.1227532 123.5625 81.9375 C119.98062691 86.069109 116.26162042 90.06929927 112.54541016 94.07958984 C108.75112961 98.17693929 105.00453553 102.31410773 101.27734375 106.47265625 C98.2347706 109.849234 95.15881256 113.19480481 92.08349609 116.54150391 C89.22383388 119.65651092 86.38476963 122.78860242 83.5625 125.9375 C81.02371326 128.77010654 78.46647642 131.58309454 75.87890625 134.37109375 C75.33999756 134.95189697 74.80108887 135.5327002 74.24584961 136.13110352 C73.18980303 137.26731992 72.13210284 138.40200232 71.07250977 139.53491211 C68.54694117 142.25162748 66.14891083 144.97398271 64 148 C61.39720793 146.72030885 58.85546079 145.3766224 56.33984375 143.93359375 C30.43722364 129.20441934 4.46184792 119.12499122 -25 114 C-25.7101123 113.86867676 -26.42022461 113.73735352 -27.15185547 113.60205078 C-70.50966501 105.81315731 -123.8550486 113.82093101 -160.56640625 138.7421875 C-162.78930071 140.41998958 -164.89900286 142.1723668 -167 144 C-167.79664063 144.66515625 -168.59328125 145.3303125 -169.4140625 146.015625 C-198.07622928 170.68461065 -213.36841578 209.41759522 -219 246 C-219.33 246 -219.66 246 -220 246 C-221.16067225 182.35647171 -189.81387135 118.52653222 -146.58984375 73.42578125 C-138.57570958 65.17355134 -130.25002616 57.82539009 -121 51 C-119.89314098 50.16287701 -118.78636963 49.32563808 -117.6796875 48.48828125 C-108.28487337 41.48432599 -98.26684814 35.62660102 -88 30 C-87.00709961 29.45496826 -87.00709961 29.45496826 -85.99414062 28.89892578 C-67.10939089 18.67865578 -46.78622681 11.24566954 -26 6 C-24.79996338 5.69473389 -24.79996338 5.69473389 -23.57568359 5.38330078 C-10.82575498 2.17420636 -10.82575498 2.17420636 -4.58203125 1.45703125 C-1.19176181 1.39573725 -1.19176181 1.39573725 0 0 Z " fill="#173E6F" transform="translate(825,4)"/>
<path d="M0 0 C0.33 0 0.66 0 1 0 C1.10957031 1.1859375 1.21914062 2.371875 1.33203125 3.59375 C5.47846124 46.67005294 19.71345743 86.31389446 50 118 C50.64582031 118.70898438 51.29164063 119.41796875 51.95703125 120.1484375 C69.12265696 138.3315286 92.24914626 151.16644309 115 161 C115.029729 162.2375 115.029729 162.2375 115.06005859 163.5 C116.30934109 212.97434787 127.59578697 257.91682806 161 296 C161.78890625 296.92167969 162.5778125 297.84335937 163.390625 298.79296875 C169.08280335 305.28169407 175.16818047 310.74185477 182 316 C182.92425781 316.73992187 183.84851563 317.47984375 184.80078125 318.2421875 C192.1451075 323.98646432 199.86174236 328.60176333 208.06982422 332.96972656 C209.80733518 333.89716095 211.53153823 334.84942456 213.25390625 335.8046875 C220.80253322 339.82444714 228.59458536 342.83521754 236.625 345.75 C237.66197021 346.12705078 238.69894043 346.50410156 239.76733398 346.89257812 C249.66457763 350.39613813 259.75149994 352.77949165 270 355 C270 355.33 270 355.66 270 356 C266.7719187 356.48666153 263.54236665 356.96284427 260.3125 357.4375 C259.41982422 357.57220703 258.52714844 357.70691406 257.60742188 357.84570312 C243.75163548 359.86736591 229.97705592 360.24077154 216 360.25 C215.07647736 360.25067474 214.15295471 360.25134949 213.20144653 360.25204468 C196.9728719 360.23332014 181.07115497 359.43089007 165 357 C163.9574707 356.8443457 162.91494141 356.68869141 161.84082031 356.52832031 C120.53827415 350.0395854 83.30147687 332.86257992 53 304 C52.24203125 303.30648438 51.4840625 302.61296875 50.703125 301.8984375 C25.97040524 278.51969875 10.8736992 245.20846886 3.75 212.375 C3.59885742 211.6847876 3.44771484 210.9945752 3.29199219 210.28344727 C0.37997073 195.91232557 -0.29125174 181.60943647 -0.22705078 166.99584961 C-0.22648497 165.16085313 -0.22680654 163.3258562 -0.22793579 161.49085999 C-0.22850366 156.56636303 -0.21684219 151.64196587 -0.20278788 146.71749187 C-0.19018503 141.5499122 -0.18910255 136.3823296 -0.18673706 131.21473694 C-0.18055012 121.45464072 -0.16417748 111.69458994 -0.14403808 101.93451363 C-0.12159176 90.81220922 -0.1106638 79.68990252 -0.10064721 68.56758106 C-0.07980842 45.71169563 -0.04468731 22.85585038 0 0 Z " fill="#148AB1" transform="translate(98,182)"/>
<path d="M0 0 C0.33 0 0.66 0 1 0 C2.14539284 47.19605877 -10.92150676 91.78633404 -42 128 C-42.69738281 128.82113281 -43.39476562 129.64226562 -44.11328125 130.48828125 C-58.00496163 146.41165164 -81.36448476 169.2783581 -103 173 C-105.90292379 172.15712845 -108.39061029 170.75588681 -111 169.25 C-111.74258057 168.8375 -112.48516113 168.425 -113.25024414 168 C-123.62512592 162.11140378 -133.03740676 155.22482102 -141.76171875 147.0859375 C-143.85454366 145.13555617 -146.00298541 143.28368633 -148.1875 141.4375 C-152.19471182 137.92619064 -155.63560629 134.125882 -159 130 C-160.12535156 128.63101563 -160.12535156 128.63101563 -161.2734375 127.234375 C-187.05904653 94.86001414 -202.3631477 54.86438313 -202.0625 13.375 C-202.05798828 12.18003906 -202.05347656 10.98507812 -202.04882812 9.75390625 C-202.03715603 6.83588353 -202.02078326 3.91796963 -202 1 C-201.67 1 -201.34 1 -201 1 C-200.8040625 1.95777344 -200.608125 2.91554688 -200.40625 3.90234375 C-196.79607114 20.41230806 -190.05399121 34.2199703 -179 47 C-178.45085937 47.6496875 -177.90171875 48.299375 -177.3359375 48.96875 C-158.98268768 68.92202673 -132.04724974 78.50792372 -105.62109375 80.21875 C-77.05611634 81.01314103 -52.83435554 70.69700186 -31 53 C-30.34644531 52.51273437 -29.69289063 52.02546875 -29.01953125 51.5234375 C-13.35930982 39.39699525 -3.58672998 19.01315116 0 0 Z " fill="#173E6F" transform="translate(415,346)"/>
<path d="M0 0 C0.99 0 1.98 0 3 0 C4.22053653 30.58122077 -5.53432201 56.7462722 -26.21875 79.43359375 C-46.92184791 101.04791956 -76.68201141 107.45291003 -104.7331543 114.06811523 C-105.92467102 114.34946068 -105.92467102 114.34946068 -107.14025879 114.63648987 C-108.64906347 114.99144584 -110.15848253 115.34380301 -111.6685791 115.69322205 C-115.43386164 116.55523925 -115.43386164 116.55523925 -119 118 C-117.80503906 118.45439453 -117.80503906 118.45439453 -116.5859375 118.91796875 C-105.42260442 123.33169533 -105.42260442 123.33169533 -101 128 C-101 128.99 -101 129.98 -101 131 C-101.79277344 130.9278125 -102.58554687 130.855625 -103.40234375 130.78125 C-130.63258436 128.61486622 -159.12326672 127.94688259 -181.55859375 146.06640625 C-191.82956648 155.05546153 -201.0639208 165.11134875 -206 178 C-206.99 178 -207.98 178 -209 178 C-214.9090516 166.18189681 -208.38214735 145.11561542 -204.8125 133.5625 C-193.16526141 100.35400426 -169.49605349 76.8369152 -138.1875 61.5 C-118.11040318 52.12730049 -96.53417453 46.79901827 -75.11846924 41.43896484 C-72.40980474 40.75758989 -69.70431237 40.06403978 -66.99870491 39.37064266 C-63.7535325 38.54074741 -60.50561117 37.7219024 -57.2578125 36.90234375 C-56.0528714 36.59417221 -54.8479303 36.28600067 -53.60647583 35.9684906 C-52.50286713 35.69392532 -51.39925842 35.41936005 -50.26220703 35.13647461 C-49.29090851 34.89191025 -48.31960999 34.64734589 -47.31887817 34.39537048 C-45 34 -45 34 -43 35 C-50.4362882 39.09091433 -58.33988812 41.62090638 -66.375 44.25 C-67.85272214 44.73911343 -69.33034134 45.22853796 -70.80786133 45.71826172 C-78.66938775 48.31334117 -86.55488463 50.79948161 -94.48779297 53.16894531 C-137.22407035 65.93830761 -171.63330314 87.37318874 -194.35546875 126.81640625 C-197.04827837 132.02932748 -199.06400237 137.46857821 -201 143 C-200.46632813 141.93523437 -199.93265625 140.87046875 -199.3828125 139.7734375 C-189.3242094 120.03597388 -176.74456079 103.47359603 -159 90 C-157.91640129 89.14226223 -156.83308044 88.28417335 -155.75 87.42578125 C-148.63643801 81.89489218 -141.19243396 77.18003603 -133.3125 72.8125 C-132.48967529 72.34996826 -131.66685059 71.88743652 -130.8190918 71.41088867 C-113.71618541 62.19043048 -95.09906016 56.65208016 -76.56079102 51.14550781 C-47.95514936 42.6131899 -17.73361078 32.47929239 -2.5 4.875 C-1.65648093 3.25526391 -0.81919064 1.63217528 0 0 Z " fill="#183E6F" transform="translate(1001,160)"/>
<path d="M0 0 C1.45513656 1.20823613 2.89262765 2.43801233 4.3125 3.6875 C5.06273437 4.33203125 5.81296875 4.9765625 6.5859375 5.640625 C18.83063624 16.92413579 25.50934042 32.95544572 26.55078125 49.46484375 C26.93685103 63.87926979 24.74740852 77.17838008 15.3125 88.6875 C8.51313694 95.58718153 8.51313694 95.58718153 4.3125 97.6875 C20.6475 98.1825 20.6475 98.1825 37.3125 98.6875 C37.3125 106.2775 37.3125 113.8675 37.3125 121.6875 C25.33276513 121.7782979 13.35326326 121.85150093 1.3732605 121.89474869 C-4.19106961 121.91551784 -9.75514968 121.94363794 -15.31933594 121.98925781 C-20.70103369 122.03309938 -26.08249274 122.05671709 -31.46435547 122.06700897 C-33.50540925 122.0743322 -35.54645174 122.08863011 -37.58740234 122.11042023 C-52.83028892 122.26651155 -67.29656122 121.31462439 -81.0625 114 C-82.05044556 113.4884436 -82.05044556 113.4884436 -83.05834961 112.96655273 C-98.13765511 104.8236169 -107.13442311 91.61070695 -112.7265625 75.73828125 C-117.91674647 57.18458623 -115.58168501 36.8354486 -106.62890625 19.9765625 C-97.03094028 3.71602459 -82.25010924 -6.45367156 -64.25 -11.75 C-42.37638462 -17.08337315 -18.17050336 -13.53389216 0 0 Z M-72.02734375 24.8359375 C-80.86251178 34.68974844 -84.36158872 45.14087839 -84.03515625 58.2265625 C-83.00765209 68.45542416 -77.97767096 77.96505956 -70.4375 84.9375 C-60.61283273 92.72798506 -50.23406424 95.48286979 -37.89453125 94.21875 C-27.07334107 92.42620205 -18.49675473 86.74122535 -11.875 78.0625 C-6.17402443 69.32542348 -3.27754541 59.0895119 -4.6875 48.6875 C-6.41056349 40.52714877 -8.90445724 33.76810425 -14.6875 27.6875 C-15.33589844 26.99914062 -15.98429688 26.31078125 -16.65234375 25.6015625 C-23.61881553 18.82405469 -32.51377132 14.20792594 -42.34765625 13.62109375 C-53.49863938 13.93756573 -63.72310012 17.17954266 -72.02734375 24.8359375 Z " fill="#183E6F" transform="translate(753.6875,718.3125)"/>
<path d="M0 0 C0.65484375 0.57621094 1.3096875 1.15242187 1.984375 1.74609375 C1.984375 6.87963033 -0.18785579 8.5420939 -3.578125 11.99609375 C-4.67916438 13.15029909 -5.77942696 14.30524595 -6.87890625 15.4609375 C-7.41596191 16.02022949 -7.95301758 16.57952148 -8.50634766 17.15576172 C-11.44985993 20.25735327 -14.23182983 23.50160008 -17.015625 26.74609375 C-19.97967128 25.35399111 -22.54344557 23.71251728 -25.203125 21.80859375 C-35.65932142 14.82644305 -47.74834368 13.46484144 -60 15.90234375 C-70.76929841 18.91551533 -78.37160162 24.36293083 -84.3203125 33.8203125 C-90.32519766 44.97537289 -90.77966461 58.45565042 -87.515625 70.55859375 C-84.1012488 80.18092666 -78.69886428 87.80276933 -69.56640625 92.59765625 C-56.48706004 98.48636649 -43.60065894 97.90555639 -30.015625 93.74609375 C-26.550625 92.75609375 -26.550625 92.75609375 -23.015625 91.74609375 C-23.015625 84.81609375 -23.015625 77.88609375 -23.015625 70.74609375 C-30.935625 70.74609375 -38.855625 70.74609375 -47.015625 70.74609375 C-47.098125 67.21921875 -47.180625 63.69234375 -47.265625 60.05859375 C-47.30204102 58.95555908 -47.33845703 57.85252441 -47.37597656 56.71606445 C-47.3859668 55.83523193 -47.39595703 54.95439941 -47.40625 54.046875 C-47.4376709 52.70363159 -47.4376709 52.70363159 -47.46972656 51.33325195 C-46.81104802 47.58055492 -45.98486431 46.19186073 -43.015625 43.74609375 C-39.3103394 43.04671446 -35.66494838 43.16514386 -31.90625 43.2578125 C-30.46741455 43.2653656 -30.46741455 43.2653656 -28.99951172 43.27307129 C-25.42124483 43.29920343 -21.84340446 43.36901083 -18.265625 43.43359375 C-10.263125 43.53671875 -2.260625 43.63984375 5.984375 43.74609375 C5.984375 66.51609375 5.984375 89.28609375 5.984375 112.74609375 C-7.99335141 119.73495696 -7.99335141 119.73495696 -15.265625 121.49609375 C-16.07427002 121.69871826 -16.88291504 121.90134277 -17.71606445 122.11010742 C-42.88453029 128.18083117 -68.32862024 127.84435717 -91.203125 114.93359375 C-106.03804777 105.59044528 -115.59876149 91.50140529 -119.83081055 74.54443359 C-124.19175672 54.17148034 -121.22376147 32.40928659 -110.015625 14.74609375 C-98.88920164 -0.21991549 -82.93586326 -9.70365286 -64.57421875 -12.92871094 C-41.28919746 -15.88821937 -20.02982178 -12.24987688 0 0 Z " fill="#183E6F" transform="translate(121.015625,718.25390625)"/>
<path d="M0 0 C9.9 0 19.8 0 30 0 C30.0093457 2.58835693 30.01869141 5.17671387 30.02832031 7.84350586 C30.06216123 16.41710227 30.11774974 24.9904598 30.18390274 33.56386471 C30.22332984 38.75946715 30.25554174 43.95490132 30.27099609 49.15063477 C30.28619401 54.16940303 30.32069533 59.18770851 30.36830902 64.20627022 C30.38309049 66.11626718 30.39103915 68.02633023 30.39188385 69.9363842 C30.39426503 72.62206633 30.42143624 75.30648137 30.45410156 77.99194336 C30.4490712 78.77310013 30.44404083 79.5542569 30.43885803 80.35908508 C30.58862362 88.37227599 33.72364108 95.59746398 39.1796875 101.4921875 C44.69509958 106.06074772 51.4913728 107.7084319 58.546875 107.38671875 C65.30931306 106.32066562 70.67184259 103.31745054 75 98 C81.55869346 88.25565544 81.29204713 77.84387505 81.30496025 66.50964737 C81.3086529 63.90356961 81.32545282 61.29786258 81.34571838 58.69186401 C81.40088967 51.28943751 81.43193187 43.88696052 81.45629883 36.484375 C81.47214703 31.94163366 81.50231979 27.39916427 81.54106331 22.85656357 C81.55271967 21.12859855 81.55864371 19.40058505 81.55874443 17.67258072 C81.55893589 15.26466493 81.57715257 12.85750562 81.59936523 10.44970703 C81.59478806 9.73592392 81.59021088 9.02214081 81.585495 8.28672791 C81.62598128 5.53456912 81.73297027 3.45709496 83.1375885 1.05270386 C85.87233318 -0.49307497 88.07316299 -0.3369977 91.19921875 -0.29296875 C93.01196289 -0.2784668 93.01196289 -0.2784668 94.86132812 -0.26367188 C96.7552832 -0.2259668 96.7552832 -0.2259668 98.6875 -0.1875 C100.59885742 -0.16719727 100.59885742 -0.16719727 102.54882812 -0.14648438 C105.69964057 -0.11108199 108.84961045 -0.0616979 112 0 C112.04657673 10.71043101 112.08199692 21.42083746 112.10362434 32.13134956 C112.11401042 37.105995 112.12807375 42.08057055 112.15087891 47.05517578 C112.17279354 51.8662674 112.18460742 56.67729229 112.18975449 61.48843002 C112.19341712 63.31340458 112.20056807 65.13837596 112.21146011 66.96332169 C112.32961423 87.60234698 110.90448795 106.08923457 96.5 122.125 C85.52267583 132.56074841 70.55950953 136.02048001 55.8125 136.3125 C40.69049009 135.90471546 26.29638404 132.58619879 15 122 C14.37480469 121.41605469 13.74960937 120.83210937 13.10546875 120.23046875 C3.23265097 110.01350046 -0.34714686 96.36066015 -0.22705078 82.53295898 C-0.22734283 81.63431625 -0.22763489 80.73567352 -0.22793579 79.80979919 C-0.22655462 76.87179537 -0.2110511 73.93405267 -0.1953125 70.99609375 C-0.19157805 68.94629556 -0.18873312 66.89649557 -0.18673706 64.84669495 C-0.17913462 59.47585034 -0.15951548 54.10511549 -0.1373291 48.73431396 C-0.11679739 43.24411503 -0.10771973 37.75389821 -0.09765625 32.26367188 C-0.07626617 21.50905883 -0.0411119 10.75455575 0 0 Z " fill="#183E6F" transform="translate(804,708)"/>
<path d="M0 0 C9.9 0 19.8 0 30 0 C30.0093457 2.51729736 30.01869141 5.03459473 30.02832031 7.62817383 C30.06220267 15.97824178 30.11781383 24.32806552 30.18390274 32.67793751 C30.223284 37.7367202 30.25551819 42.79533126 30.27099609 47.85424805 C30.28622446 52.74335304 30.32077889 57.63198587 30.36830902 62.52087975 C30.38305935 64.37898321 30.39103734 66.23715411 30.39188385 68.09531593 C30.35261318 84.66274914 30.35261318 84.66274914 37.3125 99.4375 C43.61618743 105.44799266 49.85123753 107.32807186 58.40625 107.21484375 C64.18470349 106.73620679 69.26749895 104.55433154 73.6171875 100.65625 C79.48561371 93.62740053 81.14533956 85.94300899 81.15771484 77.06616211 C81.16279556 76.2706041 81.16787628 75.47504608 81.17311096 74.65538025 C81.1837954 72.93116792 81.1924231 71.20694188 81.19923019 69.48270988 C81.21103293 66.75529124 81.23048699 64.02802994 81.25234985 61.30067444 C81.31393671 53.54742639 81.36809482 45.79419695 81.40136719 38.04077148 C81.42227478 33.29629601 81.45753973 28.55211167 81.50212479 23.8078022 C81.51630918 21.99890116 81.52501271 20.18994867 81.52817917 18.3809948 C81.53307066 15.85516585 81.55617984 13.330115 81.58349609 10.80444336 C81.57898689 9.67990753 81.57898689 9.67990753 81.5743866 8.53265381 C81.61999504 5.70271501 81.70421021 3.51164443 83.13858032 1.03053284 C85.87483363 -0.48433182 88.08605897 -0.33681607 91.19921875 -0.29296875 C93.01196289 -0.2784668 93.01196289 -0.2784668 94.86132812 -0.26367188 C96.7552832 -0.2259668 96.7552832 -0.2259668 98.6875 -0.1875 C100.59885742 -0.16719727 100.59885742 -0.16719727 102.54882812 -0.14648438 C105.69964057 -0.11108199 108.84961045 -0.0616979 112 0 C112.06987747 11.21467386 112.1230014 22.4292949 112.15543652 33.6441431 C112.17101308 38.85309162 112.19210293 44.06188988 112.22631836 49.27075195 C112.2592001 54.30879099 112.27691304 59.34668659 112.28463173 64.38482475 C112.290124 66.29550874 112.30084707 68.20618595 112.31719017 70.11680794 C112.46829542 88.53454614 111.43693944 106.99673927 98.0390625 121.19140625 C85.13821416 132.63411273 69.55944185 136.57729093 52.63671875 136.2421875 C38.41710818 135.29523169 24.24864998 131.10135191 13.73828125 120.99609375 C3.40807059 109.13376195 -0.18226107 95.46482854 -0.11352539 80.03540039 C-0.11367142 79.16631042 -0.11381744 78.29722046 -0.1139679 77.40179443 C-0.11327536 74.55038899 -0.105514 71.69905018 -0.09765625 68.84765625 C-0.09578973 66.86225927 -0.09436693 64.87686184 -0.09336853 62.89146423 C-0.08956181 57.68173945 -0.07974735 52.47204281 -0.06866455 47.2623291 C-0.05841069 41.9398639 -0.05386241 36.61739412 -0.04882812 31.29492188 C-0.03812335 20.86326693 -0.02054157 10.43164022 0 0 Z " fill="#183E6F" transform="translate(151,708)"/>
<path d="M0 0 C1.53720703 0.01450195 1.53720703 0.01450195 3.10546875 0.02929688 C4.70068359 0.06700195 4.70068359 0.06700195 6.328125 0.10546875 C7.40707031 0.11900391 8.48601562 0.13253906 9.59765625 0.14648438 C12.2583192 0.18180291 14.91796796 0.23112676 17.578125 0.29296875 C18.29745505 1.94319652 19.01678499 3.59342434 19.7361145 5.24365234 C20.39120309 6.74650141 21.04629349 8.24934969 21.7013855 9.75219727 C23.58311059 14.0690736 25.46480087 18.38596511 27.34643555 22.70288086 C31.15997534 31.4519521 34.97384231 40.20088013 38.7890625 48.94921875 C41.91044203 56.10660662 45.0301052 63.26474077 48.14863586 70.42337036 C50.62997295 76.11874867 53.11397581 81.81295937 55.59886169 87.50679016 C57.43613148 91.7179004 59.27163496 95.92977908 61.10678101 100.14181519 C61.99621565 102.18227103 62.8863595 104.22241789 63.7772522 106.26223755 C65.02267413 109.11410444 66.26552131 111.96708072 67.5078125 114.8203125 C67.8758046 115.66133514 68.24379669 116.50235779 68.62294006 117.36886597 C68.96892746 118.16487213 69.31491486 118.9608783 69.67138672 119.78100586 C69.96874725 120.46279404 70.26610779 121.14458221 70.57247925 121.84703064 C71.9905588 125.2960929 73.26871323 128.80120402 74.578125 132.29296875 C63.358125 132.29296875 52.138125 132.29296875 40.578125 132.29296875 C37.76751061 126.67173997 35.19395577 121.20562343 32.828125 115.41796875 C32.51230469 114.66 32.19648437 113.90203125 31.87109375 113.12109375 C29.578125 107.54252909 29.578125 107.54252909 29.578125 105.29296875 C12.748125 105.29296875 -4.081875 105.29296875 -21.421875 105.29296875 C-21.751875 106.94296875 -22.081875 108.59296875 -22.421875 110.29296875 C-22.99053195 111.98759316 -23.59666344 113.66997951 -24.234375 115.33984375 C-24.58757813 116.26667969 -24.94078125 117.19351563 -25.3046875 118.1484375 C-25.67335938 119.10363281 -26.04203125 120.05882812 -26.421875 121.04296875 C-26.79054688 122.01363281 -27.15921875 122.98429688 -27.5390625 123.984375 C-30.28886763 131.15996138 -30.28886763 131.15996138 -31.421875 132.29296875 C-33.87017926 132.38140668 -36.29008099 132.40825627 -38.73828125 132.390625 C-39.46933578 132.38921005 -40.20039032 132.3877951 -40.95359802 132.38633728 C-43.29723132 132.38072283 -45.64077039 132.36816797 -47.984375 132.35546875 C-49.56966008 132.35045561 -51.15494666 132.34589238 -52.74023438 132.34179688 C-56.6341511 132.33074872 -60.52799705 132.31347447 -64.421875 132.29296875 C-62.29452212 125.44886331 -59.64534822 118.92582747 -56.765625 112.3671875 C-56.08327034 110.80012306 -56.08327034 110.80012306 -55.38713074 109.20140076 C-53.90215822 105.79290906 -52.41197959 102.38671953 -50.921875 98.98046875 C-49.8860281 96.60484959 -48.85063282 94.22903346 -47.81567383 91.85302734 C-46.23366513 88.22114958 -44.65143265 84.58937196 -43.06782532 80.95819092 C-38.45501379 70.37979464 -33.87443362 59.78769384 -29.30545044 49.19030762 C-28.12124415 46.44547982 -26.93488858 43.70159134 -25.74780273 40.95800781 C-22.52407177 33.50478968 -19.30933982 26.04921616 -16.1640625 18.5625 C-15.69911377 17.46470215 -15.23416504 16.3669043 -14.75512695 15.23583984 C-13.947114 13.32486204 -13.1477656 11.41017979 -12.36010742 9.49072266 C-11.85120972 8.29261963 -11.85120972 8.29261963 -11.33203125 7.0703125 C-10.91642944 6.06859009 -10.91642944 6.06859009 -10.49243164 5.04663086 C-7.84944748 0.7171998 -4.87828449 -0.08130474 0 0 Z M3.578125 41.29296875 C2.08199949 44.93562521 0.58882447 48.5794768 -0.90185547 52.22436523 C-1.65313617 54.05969111 -2.40661825 55.89411538 -3.16015625 57.72851562 C-3.64355469 58.91123047 -4.12695312 60.09394531 -4.625 61.3125 C-5.06489258 62.38604736 -5.50478516 63.45959473 -5.95800781 64.56567383 C-7.87210216 69.43933599 -9.6324873 74.37215259 -11.421875 79.29296875 C-1.521875 79.29296875 8.378125 79.29296875 18.578125 79.29296875 C16.80261925 73.37461626 15.13406872 67.8691094 12.87890625 62.19140625 C12.6389946 61.58406647 12.39908295 60.97672668 12.15190125 60.35098267 C11.4019854 58.45509379 10.64644268 56.56151135 9.890625 54.66796875 C9.37397022 53.36473342 8.85769158 52.0613489 8.34179688 50.7578125 C7.09091575 47.60138349 5.83628232 44.44650287 4.578125 41.29296875 C4.248125 41.29296875 3.918125 41.29296875 3.578125 41.29296875 Z " fill="#183E6F" transform="translate(559.421875,707.70703125)"/>
<path d="M0 0 C1.46469727 0.01933594 1.46469727 0.01933594 2.95898438 0.0390625 C3.96638672 0.07257812 4.97378906 0.10609375 6.01171875 0.140625 C7.55182617 0.16769531 7.55182617 0.16769531 9.12304688 0.1953125 C11.6493976 0.24231437 14.17382344 0.30800228 16.69921875 0.390625 C20.54747905 7.84237993 23.96036313 15.43321714 27.26171875 23.140625 C28.11118864 25.11399912 28.96181555 27.08687209 29.8125 29.0597229 C30.43097528 30.49413872 31.04913035 31.92869264 31.66699219 33.3633728 C35.43939908 42.11924182 39.24936931 50.8587498 43.05526733 59.60009766 C46.05547691 66.49334269 49.05036183 73.38890306 52.04589844 80.28417969 C53.84750193 84.43115672 55.6503935 88.57757074 57.45410156 92.72363281 C59.69640043 97.87868717 61.93483622 103.03540359 64.17059326 108.19329834 C65.01993386 110.15109146 65.87055151 112.10833107 66.72247314 114.06500244 C67.90040577 116.77104502 69.07381296 119.47900522 70.24609375 122.1875 C70.77422165 123.39655502 70.77422165 123.39655502 71.3130188 124.6300354 C73.69921875 130.16241559 73.69921875 130.16241559 73.69921875 132.390625 C62.47921875 132.390625 51.25921875 132.390625 39.69921875 132.390625 C38.04921875 128.4925 36.39921875 124.594375 34.69921875 120.578125 C34.17714844 119.35246826 33.65507812 118.12681152 33.1171875 116.86401367 C32.71113281 115.8969751 32.30507813 114.92993652 31.88671875 113.93359375 C31.46777344 112.94383545 31.04882812 111.95407715 30.6171875 110.93432617 C29.69921875 108.390625 29.69921875 108.390625 29.69921875 105.390625 C12.86921875 105.390625 -3.96078125 105.390625 -21.30078125 105.390625 C-22.29078125 108.360625 -23.28078125 111.330625 -24.30078125 114.390625 C-24.89319889 116.00193624 -25.497627 117.60900569 -26.125 119.20703125 C-26.40174561 119.91545166 -26.67849121 120.62387207 -26.96362305 121.35375977 C-27.30176025 122.21155029 -27.63989746 123.06934082 -27.98828125 123.953125 C-29.62796875 128.1296875 -29.62796875 128.1296875 -31.30078125 132.390625 C-42.52078125 132.390625 -53.74078125 132.390625 -65.30078125 132.390625 C-57.76294932 114.04856731 -49.88425679 95.86681845 -41.9619751 77.68832397 C-41.52592957 76.68773956 -41.08988403 75.68715515 -40.640625 74.65625 C-40.20184021 73.64946198 -39.76305542 72.64267395 -39.31097412 71.6053772 C-34.49238655 60.54395263 -29.70668295 49.46837903 -24.92578125 38.390625 C-24.53149933 37.4773645 -24.13721741 36.564104 -23.73098755 35.62316895 C-22.96648019 33.85229138 -22.20228569 32.08127872 -21.43843079 30.31011963 C-20.71703927 28.63926718 -19.99401726 26.96911756 -19.26921082 25.29974365 C-17.67012922 21.60978411 -16.0978532 17.9153915 -14.60839844 14.1796875 C-14.3466684 13.53467285 -14.08493835 12.8896582 -13.8152771 12.22509766 C-13.13234831 10.53452338 -12.46462459 8.83782792 -11.79833984 7.140625 C-9.00131038 2.00437787 -5.82992411 -0.13637249 0 0 Z M2.69921875 41.390625 C0.70110597 46.47928381 -1.29261027 51.56963421 -3.28222656 56.66162109 C-3.96004844 58.39451854 -4.63908087 60.12694298 -5.31933594 61.85888672 C-6.2954879 64.34480141 -7.26730958 66.83237066 -8.23828125 69.3203125 C-8.69763062 70.48601273 -8.69763062 70.48601273 -9.16625977 71.67526245 C-10.73883053 75.42099332 -10.73883053 75.42099332 -11.30078125 79.390625 C-1.40078125 79.390625 8.49921875 79.390625 18.69921875 79.390625 C17.3221695 75.70701827 15.94490889 72.02381809 14.55859375 68.34375 C13.22351556 64.79609104 11.90425154 61.24286534 10.58984375 57.6875 C9.8765517 55.7759485 9.16301295 53.86448905 8.44921875 51.953125 C8.10826172 51.02346924 7.76730469 50.09381348 7.41601562 49.13598633 C6.9297168 47.84084106 6.9297168 47.84084106 6.43359375 46.51953125 C6.14709961 45.74681885 5.86060547 44.97410645 5.56542969 44.17797852 C4.83277151 42.20329767 4.83277151 42.20329767 2.69921875 41.390625 Z " fill="#183E6F" transform="translate(336.30078125,707.609375)"/>
<path d="M0 0 C5.15921743 -0.22320235 10.31560509 -0.38610225 15.47851562 -0.49438477 C17.23259439 -0.53953126 18.98633651 -0.60086921 20.73925781 -0.67895508 C35.19189162 -1.3064389 35.19189162 -1.3064389 39.31420898 1.67211914 C40.932722 4.04556997 41.95344823 6.32753764 43 9 C43.94684799 10.7196673 44.91226848 12.42921905 45.89453125 14.12890625 C46.87119498 15.93794634 47.84374432 17.74921279 48.8125 19.5625 C49.85460347 21.49395669 50.89758068 23.4249422 51.94140625 25.35546875 C52.4533252 26.30341309 52.96524414 27.25135742 53.49267578 28.22802734 C55.7063535 32.29898568 57.97102037 36.34032079 60.25 40.375 C60.63260986 41.05248291 61.01521973 41.72996582 61.40942383 42.42797852 C62.27172086 43.95268103 63.13564415 45.47646369 64 47 C67.04234505 43.37182508 69.49489166 39.651792 71.86328125 35.5546875 C72.39588814 34.63890427 72.39588814 34.63890427 72.93925476 33.70462036 C74.06752424 31.76361898 75.19041947 29.81958467 76.3125 27.875 C90.2840159 3.7159841 90.2840159 3.7159841 94 0 C96.65291757 -0.17510386 99.19986174 -0.23155483 101.8515625 -0.1953125 C102.62559418 -0.1924826 103.39962585 -0.18965271 104.19711304 -0.18673706 C106.67323157 -0.17552754 109.1489905 -0.15042203 111.625 -0.125 C113.30207812 -0.11497118 114.97916189 -0.10584516 116.65625 -0.09765625 C120.77097223 -0.07558574 124.88542511 -0.04105102 129 0 C127.85448207 3.02714019 126.67402433 5.73386417 124.84765625 8.40625 C124.41090576 9.05231201 123.97415527 9.69837402 123.52416992 10.36401367 C123.04181885 11.06888916 122.55946777 11.77376465 122.0625 12.5 C120.9753145 14.10983496 119.88947293 15.72057803 118.8046875 17.33203125 C118.20237305 18.22615723 117.60005859 19.1202832 116.97949219 20.04150391 C113.17381888 25.72936148 109.43403571 31.46060465 105.6875 37.1875 C104.57367664 38.88841102 103.45974417 40.58922699 102.3430481 42.28825378 C101.56832104 43.47673978 100.80224929 44.67090503 100.04415894 45.87007141 C97.57509227 49.74325777 94.94248644 53.38405267 92.10375977 56.99682617 C80.19385238 72.71263251 78.95297634 85.60076045 79.5625 104.9375 C79.58960519 107.57871407 79.6098264 110.22000806 79.62304688 112.86132812 C79.65707439 119.24849258 79.83086873 125.60940702 80 132 C70.1 132 60.2 132 50 132 C50.04382813 128.13152344 50.08765625 124.26304687 50.1328125 120.27734375 C50.14122026 116.48415835 50.13244384 112.69136857 50.12207031 108.89819336 C50.12400363 106.28451187 50.14349115 103.67077682 50.18164062 101.05737305 C50.51133147 80.09733981 50.51133147 80.09733981 40.33917236 62.58041382 C38.13833571 59.9831136 36.38251966 57.12105185 34.5703125 54.24609375 C33.84150537 53.12611757 33.11077788 52.00738879 32.37817383 50.88989258 C31.62710621 49.73910137 30.8760485 48.58830369 30.125 47.4375 C24.90183912 39.43644114 19.65082847 31.45610059 14.32421875 23.5234375 C13.86080078 22.83244461 13.39738281 22.14145172 12.91992188 21.42951965 C10.66809128 18.07265432 8.41143611 14.71920597 6.14697266 11.37084961 C5.3334757 10.16011653 4.52015248 8.9492667 3.70703125 7.73828125 C2.9900708 6.67649658 2.27311035 5.61471191 1.53442383 4.52075195 C0 2 0 2 0 0 Z " fill="#183E6F" transform="translate(388,708)"/>
<path d="M0 0 C9.9 0 19.8 0 30 0 C30 34.65 30 69.3 30 105 C47.82 105 65.64 105 84 105 C84 113.91 84 122.82 84 132 C56.28 132 28.56 132 0 132 C0 88.44 0 44.88 0 0 Z " fill="#183E6F" transform="translate(997,708)"/>
<path d="M0 0 C8.91 0 17.82 0 27 0 C27 43.56 27 87.12 27 132 C17.1 132 7.2 132 -3 132 C-3.06768309 115.23229486 -3.12296193 98.46470602 -3.15543652 81.69690228 C-3.17091484 73.91157331 -3.1920227 66.12633514 -3.22631836 58.34106445 C-3.25619129 51.55654793 -3.27556798 44.77209716 -3.28226548 37.9875167 C-3.28618135 34.39408309 -3.29540395 30.80083761 -3.31719017 27.20746422 C-3.34129651 23.19901508 -3.34197136 19.19089439 -3.34057617 15.18237305 C-3.351362 13.9869136 -3.36214783 12.79145416 -3.3732605 11.55976868 C-3.36913651 10.47021881 -3.36501251 9.38066895 -3.36076355 8.25810242 C-3.36352893 7.30957744 -3.36629431 6.36105246 -3.36914349 5.38378429 C-3 3 -3 3 0 0 Z " fill="#183E6F" transform="translate(944,708)"/>
<path d="M0 0 C15 0 15 0 19.20629883 3.70922852 C20.34340245 5.39761326 21.42501397 7.1243157 22.45703125 8.87890625 C23.0557756 9.79776108 23.65451996 10.71661591 24.27140808 11.66331482 C26.16955866 14.60052884 27.9906533 17.5774947 29.8125 20.5625 C31.05175834 22.51027638 32.29586443 24.45497734 33.54492188 26.39648438 C35.95844271 30.16252506 38.34417085 33.94374567 40.70556641 37.74267578 C44.97964204 44.60140203 49.47279098 51.30686437 54 58 C54.66 58.99 55.32 59.98 56 61 C56.01030746 60.25053604 56.02061493 59.50107208 56.03123474 58.72889709 C56.12904525 51.68009546 56.23153576 44.63138126 56.33933926 37.58272648 C56.39460097 33.9585842 56.448026 30.3344339 56.49731445 26.71020508 C56.54491032 23.21532901 56.5972511 19.7205538 56.65294075 16.22579765 C56.68336413 14.23766177 56.70881982 12.24945191 56.73423767 10.26124573 C56.75418289 9.06007614 56.77412811 7.85890656 56.79467773 6.62133789 C56.81022202 5.55766495 56.8257663 4.493992 56.84178162 3.39808655 C57 1 57 1 58 0 C61.63 0 65.26 0 69 0 C69 26.07 69 52.14 69 79 C64.05 79 59.1 79 54 79 C50.59307175 75.38659125 48.38538538 72.85965627 46.00891113 68.72546387 C44.38724426 65.95205052 42.53148198 63.34090699 40.7109375 60.6953125 C39.26202646 58.50758736 37.81672792 56.31746553 36.375 54.125 C28.37313463 41.995543 20.18836757 30.00960578 12 18 C11.67 38.13 11.34 58.26 11 79 C7.37 79 3.74 79 0 79 C0 52.93 0 26.86 0 0 Z " fill="#183E6F" transform="translate(152,600)"/>
<path d="M0 0 C47.6875 0 47.6875 0 59.67578125 11.625 C66.70951438 19.16488266 69.9219348 28.95678384 70.03515625 39.171875 C69.44383561 51.45980637 65.12151171 61.60942458 56.26171875 70.2578125 C39.69717463 83.01737498 20.42475196 79 0 79 C0 52.93 0 26.86 0 0 Z M12 11 C12 29.81 12 48.62 12 68 C34.15771463 68.82388288 34.15771463 68.82388288 51.1171875 58.25390625 C56.60480225 51.68470769 57.67333928 44.57465698 57.38671875 36.18359375 C56.4778119 28.70117874 53.54001898 22.1787134 48 17 C35.48848354 9.51343405 28.53743412 11 12 11 Z " fill="#183E6F" transform="translate(601,600)"/>
<path d="M0 0 C46.61060768 0 46.61060768 0 57 8.95703125 C66.4546379 18.61479614 69.51316913 28.45466665 69.42211914 41.66992188 C69.02714471 53.3249051 64.20508762 62.20196588 55.875 70.1875 C40.21820279 83.00715946 18.55387669 79 0 79 C0 52.93 0 26.86 0 0 Z M11 11 C11 29.81 11 48.62 11 68 C31.74494554 68.77966897 31.74494554 68.77966897 49.01953125 60.03515625 C54.37341786 54.53343057 57.10103751 47.99691402 57.25 40.375 C57.06605477 30.72495011 54.39475911 24.06161396 47.5390625 17.140625 C36.83457691 8.11592023 25.1718771 11 11 11 Z " fill="#183E6F" transform="translate(764,600)"/>
<path d="M0 0 C46.69172932 0 46.69172932 0 58.78515625 10.55859375 C67.39345809 19.73931464 69.43203016 31.08599643 69.20703125 43.2109375 C68.63781408 53.62868577 64.37934557 61.78033816 56.89453125 69.04296875 C40.04886493 83.02636256 22.22354785 79 0 79 C0 52.93 0 26.86 0 0 Z M11 11 C11 29.81 11 48.62 11 68 C32.08661434 68.66905422 32.08661434 68.66905422 49.27734375 59.7734375 C54.66336164 54.22864811 57.03690052 47.50475392 57.3125 39.875 C57.16990401 31.30498091 53.80717833 23.82035597 47.93359375 17.65625 C37.14379179 8.4140762 25.24454381 11 11 11 Z " fill="#183E6F" transform="translate(874,600)"/>
<path d="M0 0 C41.24058577 0 41.24058577 0 47.33984375 4.8671875 C47.86707031 5.52976562 48.39429688 6.19234375 48.9375 6.875 C49.48277344 7.53242187 50.02804687 8.18984375 50.58984375 8.8671875 C54.60374202 14.93806964 54.73646301 20.91154354 54 28 C52.02427774 34.84767375 47.82469264 38.63768984 41.875 42.3125 C40 43 40 43 36 43 C42.30155303 53.60689217 48.63077837 64.16340712 55.453125 74.4453125 C57 77 57 77 57 79 C52.05 79 47.1 79 42 79 C40.57107422 76.4321875 40.57107422 76.4321875 39.11328125 73.8125 C38.17340516 72.12768508 37.23351367 70.44287872 36.29321289 68.75830078 C35.33273062 67.03627108 34.37435026 65.31306956 33.41601562 63.58984375 C32.1849806 61.38558208 30.94058006 59.18872507 29.68212891 57 C28 54 28 54 26.81396484 51.4375 C25.67817518 48.92755367 25.67817518 48.92755367 23 46 C19.37 45.67 15.74 45.34 12 45 C12 56.22 12 67.44 12 79 C8.04 79 4.08 79 0 79 C0 52.93 0 26.86 0 0 Z M12 10 C12 17.92 12 25.84 12 34 C17.011875 34.0928125 17.011875 34.0928125 22.125 34.1875 C23.16672363 34.21481201 24.20844727 34.24212402 25.28173828 34.27026367 C30.59400971 34.31777677 34.46157605 34.09834712 39 31 C41.67741863 26.98387205 42.69960009 23.79725776 42 19 C40.03374611 14.82171048 38.64606467 13.30178021 34.4375 11.3359375 C29.75808227 9.69292538 25.40917026 9.65783376 20.5 9.8125 C17.695 9.874375 14.89 9.93625 12 10 Z " fill="#183E6F" transform="translate(430,600)"/>
<path d="M0 0 C17.16 0 34.32 0 52 0 C52 3.63 52 7.26 52 11 C38.8 11 25.6 11 12 11 C12 18.26 12 25.52 12 33 C24.21 33 36.42 33 49 33 C49 36.63 49 40.26 49 44 C36.79 44 24.58 44 12 44 C12 51.92 12 59.84 12 68 C25.86 68 39.72 68 54 68 C54 71.63 54 75.26 54 79 C36.18 79 18.36 79 0 79 C0 52.93 0 26.86 0 0 Z " fill="#183E6F" transform="translate(359,600)"/>
<path d="M0 0 C2.67553711 0.06860352 2.67553711 0.06860352 5.35107422 0.13720703 C6.47280029 0.16596924 6.47280029 0.16596924 7.6171875 0.1953125 C11.97404107 8.40157433 15.5272838 16.91256753 19.09204102 25.48135376 C20.84302827 29.68988436 22.6047958 33.89389115 24.3671875 38.09765625 C24.72180054 38.9439006 25.07641357 39.79014496 25.44177246 40.66203308 C29.47523225 50.2689957 33.6286675 59.82332878 37.80664062 69.36816406 C38.31130859 70.52413086 38.81597656 71.68009766 39.3359375 72.87109375 C40.00012695 74.3857019 40.00012695 74.3857019 40.67773438 75.9309082 C41.6171875 78.1953125 41.6171875 78.1953125 41.6171875 79.1953125 C36.9971875 79.1953125 32.3771875 79.1953125 27.6171875 79.1953125 C24.88600308 73.2162331 22.20704609 67.23831588 19.6171875 61.1953125 C7.7371875 61.1953125 -4.1428125 61.1953125 -16.3828125 61.1953125 C-18.6928125 67.1353125 -21.0028125 73.0753125 -23.3828125 79.1953125 C-28.0028125 79.1953125 -32.6228125 79.1953125 -37.3828125 79.1953125 C-35.36836137 72.87094633 -33.03375442 66.8428619 -30.3203125 60.7890625 C-29.93213852 59.91386459 -29.54396454 59.03866669 -29.14402771 58.13694763 C-27.89421755 55.32130395 -26.63868925 52.50825481 -25.3828125 49.6953125 C-24.52183974 47.76001471 -23.66124556 45.82454845 -22.80102539 43.88891602 C-21.51999521 41.0064048 -20.23872149 38.12400633 -18.95582581 35.24232483 C-16.53292738 29.79737659 -14.12856117 24.34506146 -11.75390625 18.87890625 C-11.24666016 17.71359375 -10.73941406 16.54828125 -10.21679688 15.34765625 C-9.3096553 13.25932753 -8.40581797 11.16955925 -7.50585938 9.078125 C-7.11333984 8.17707031 -6.72082031 7.27601563 -6.31640625 6.34765625 C-5.98697021 5.58445068 -5.65753418 4.82124512 -5.31811523 4.03491211 C-3.93224209 1.30910836 -3.11054599 0.25496279 0 0 Z M1.6171875 16.1953125 C-2.14280983 24.00015544 -5.54317254 31.9029619 -8.7578125 39.9453125 C-9.29438477 41.28577637 -9.29438477 41.28577637 -9.84179688 42.65332031 C-11.57045599 46.31693055 -11.57045599 46.31693055 -12.3828125 50.1953125 C-3.1428125 50.1953125 6.0971875 50.1953125 15.6171875 50.1953125 C13.8743274 44.9667322 12.18514182 39.92880958 10.13671875 34.84765625 C9.69521484 33.74873047 9.25371094 32.64980469 8.79882812 31.51757812 C8.34701172 30.40060547 7.89519531 29.28363281 7.4296875 28.1328125 C6.96626953 26.98103516 6.50285156 25.82925781 6.02539062 24.64257812 C4.8916903 21.82585876 3.75557249 19.01014103 2.6171875 16.1953125 C2.2871875 16.1953125 1.9571875 16.1953125 1.6171875 16.1953125 Z " fill="#183E6F" transform="translate(710.3828125,599.8046875)"/>
<path d="M0 0 C16.83 0 33.66 0 51 0 C51 3.63 51 7.26 51 11 C37.8 11 24.6 11 11 11 C11 18.26 11 25.52 11 33 C23.54 33 36.08 33 49 33 C49 36.63 49 40.26 49 44 C36.46 44 23.92 44 11 44 C11 51.92 11 59.84 11 68 C24.86 68 38.72 68 53 68 C53 71.63 53 75.26 53 79 C35.51 79 18.02 79 0 79 C0 52.93 0 26.86 0 0 Z " fill="#183E6F" transform="translate(955,600)"/>
<path d="M0 0 C3.96 0 7.92 0 12 0 C12.01458252 1.59392578 12.02916504 3.18785156 12.04418945 4.83007812 C12.10232014 10.76422144 12.17955298 16.69799119 12.26245117 22.63183594 C12.29563094 25.19622722 12.32368432 27.76069031 12.34643555 30.32519531 C12.3801085 34.01919042 12.43243307 37.7125316 12.48828125 41.40625 C12.49467117 42.5461438 12.5010611 43.6860376 12.50764465 44.86047363 C12.62539479 51.28817558 13.34273991 56.13417397 16 62 C16.28875 62.78375 16.5775 63.5675 16.875 64.375 C18.49898713 66.72075919 20.32949615 67.15325488 23 68 C24.485 68.495 24.485 68.495 26 69 C31.64373882 69.54819756 37.59338496 69.99707614 42.38237 66.53541565 C47.18638205 61.97556249 49.2632651 55.60673298 49.62768555 49.13891602 C49.65491679 47.01075151 49.65689917 44.88214929 49.63671875 42.75390625 C49.64709671 41.62097641 49.65747467 40.48804657 49.66816711 39.32078552 C49.69766726 35.73437476 49.69449313 32.14900936 49.6875 28.5625 C49.69639165 24.95129016 49.71229537 21.3403555 49.7389679 17.72923279 C49.75389476 15.490073 49.75767938 13.25080539 49.74919128 11.01161194 C49.75292252 10.00303635 49.75665375 8.99446075 49.76049805 7.95532227 C49.75786201 6.62489647 49.75786201 6.62489647 49.75517273 5.26759338 C50 3 50 3 52 0 C54.3828125 -0.29296875 54.3828125 -0.29296875 57.125 -0.1875 C58.03507812 -0.16042969 58.94515625 -0.13335938 59.8828125 -0.10546875 C60.58148438 -0.07066406 61.28015625 -0.03585937 62 0 C62.10197178 7.77372957 62.17170477 15.54728468 62.21972656 23.3215332 C62.23975996 25.96254929 62.26699451 28.60352149 62.30175781 31.24438477 C62.350639 35.05496091 62.37305267 38.86494721 62.390625 42.67578125 C62.41127014 43.84393875 62.43191528 45.01209625 62.45318604 46.21565247 C62.45604467 56.8159915 60.26051721 65.56166223 52.79296875 73.34765625 C45.01581508 80.51483708 37.05871944 81.5704933 26.91796875 81.30859375 C18.30150691 80.62992926 11.64414542 76.49261172 6 70 C1.79294099 63.31881448 -0.13167021 57.27654165 -0.11352539 49.38354492 C-0.11344986 48.28278122 -0.11337433 47.18201752 -0.11329651 46.04789734 C-0.10813522 44.8706459 -0.10297394 43.69339447 -0.09765625 42.48046875 C-0.0962413 41.26676102 -0.09482635 40.05305328 -0.09336853 38.80256653 C-0.08777665 34.93085248 -0.07522558 31.05919653 -0.0625 27.1875 C-0.05748395 24.56054771 -0.05292123 21.93359451 -0.04882812 19.30664062 C-0.03780987 12.87107141 -0.02055075 6.43554555 0 0 Z " fill="#183E6F" transform="translate(72,600)"/>
<path d="M0 0 C1.42977286 1.16500011 2.78702077 2.41813509 4.125 3.6875 C2.47408222 7.97988623 -0.61254566 10.5668915 -3.875 13.6875 C-4.865 13.3575 -5.855 13.0275 -6.875 12.6875 C-6.875 12.0275 -6.875 11.3675 -6.875 10.6875 C-13.96231035 7.81426607 -19.82243495 6.26159748 -27.25 8.875 C-30.26754289 10.95854152 -31.55170714 12.26250673 -32.875 15.6875 C-32.875 19.79016795 -32.45808739 21.93848393 -29.92578125 25.19140625 C-25.29100867 28.9834929 -20.10810048 30.20518777 -14.44335938 31.91601562 C-7.38674389 34.17945833 -1.41699691 37.24350418 3.0625 43.3125 C5.82429044 49.48591392 6.13644849 56.29912956 4.0625 62.75 C1.31281036 69.12775235 -3.00691049 74.17270636 -9.3125 77.1875 C-18.99360048 80.49324163 -30.23041693 79.84873858 -39.58984375 75.91015625 C-42.80763804 74.18849879 -45.26196186 72.22991549 -47.875 69.6875 C-47.31367066 66.1503562 -46.17942253 64.69488321 -43.4375 62.4375 C-42.51130859 61.65632812 -42.51130859 61.65632812 -41.56640625 60.859375 C-39.875 59.6875 -39.875 59.6875 -37.875 59.6875 C-37.111875 60.47125 -36.34875 61.255 -35.5625 62.0625 C-31.50828904 66.02242699 -28.48862711 66.80055831 -22.9375 67 C-17.58778798 66.88058679 -14.02196659 65.61976993 -10 62 C-8.37692335 58.66367577 -7.97636971 55.31032448 -8.875 51.6875 C-12.09677253 47.27028029 -16.60896394 46.013123 -21.5625 44.25 C-40.75644913 37.08052928 -40.75644913 37.08052928 -45.125 28.125 C-46.73472528 20.74709247 -47.16015327 13.10173505 -43.1953125 6.43359375 C-33.68382532 -6.14520734 -13.01858323 -9.11300826 0 0 Z " fill="#183E6F" transform="translate(548.875,602.3125)"/>
<path d="M0 0 C4.29 0 8.58 0 13 0 C16.12954987 6.8057672 18.78527016 13.68986565 21.29296875 20.74609375 C21.68446609 21.83841812 22.07596344 22.93074249 22.47932434 24.0561676 C23.71860809 27.51546781 24.95329795 30.97638387 26.1875 34.4375 C27.43317713 37.92333064 28.67982584 41.40880898 29.92781067 44.89381409 C30.70169558 47.0556562 31.47410995 49.2180254 32.24491882 51.38096619 C32.59230606 52.3528035 32.9396933 53.32464081 33.29760742 54.32592773 C33.60309006 55.1825853 33.90857269 56.03924286 34.22331238 56.92185974 C34.96511073 59.01837338 34.96511073 59.01837338 36 61 C47.385 30.805 47.385 30.805 59 0 C63.29 0 67.58 0 72 0 C69.96621524 7.09921873 67.57853533 13.92157786 64.83203125 20.7734375 C64.43352463 21.77726471 64.03501801 22.78109192 63.62443542 23.81533813 C62.35770172 27.00346457 61.08520089 30.18925167 59.8125 33.375 C58.97813595 35.47250526 58.14414878 37.57016048 57.31054688 39.66796875 C55.67370078 43.78498091 54.03312215 47.90047272 52.38916016 52.01464844 C50.79892213 55.99449115 49.21565418 59.97699412 47.63818359 63.96191406 C47.26843918 64.89339264 46.89869476 65.82487122 46.51774597 66.78457642 C45.82085767 68.54027677 45.12587084 70.29673342 44.43305969 72.05404663 C42.11288393 77.88711607 42.11288393 77.88711607 41 79 C37.33344805 79.14300125 33.66855781 79.04216733 30 79 C26.74239446 71.26569768 23.59226174 63.49959676 20.56640625 55.671875 C20.16598618 54.63919495 19.7655661 53.60651489 19.35301208 52.5425415 C18.51285847 50.37483205 17.67343439 48.2068397 16.8347168 46.03857422 C15.57066393 42.77110309 14.30407652 39.50462331 13.03710938 36.23828125 C10.682195 30.16238628 8.33647362 24.08300994 6 18 C5.50484894 16.71113892 5.50484894 16.71113892 4.99969482 15.39624023 C4.12958124 13.12515221 3.2646189 10.85219872 2.40234375 8.578125 C2.15287491 7.92680603 1.90340607 7.27548706 1.64637756 6.60443115 C0 2.23273691 0 2.23273691 0 0 Z " fill="#183E6F" transform="translate(270,600)"/>
<path d="M0 0 C3.63 0 7.26 0 11 0 C11 26.07 11 52.14 11 79 C7.04 79 3.08 79 -1 79 C-1.02313763 68.9949931 -1.04092237 58.98999254 -1.05181217 48.98496437 C-1.05703788 44.33957603 -1.06412989 39.69420595 -1.07543945 35.04882812 C-1.08627939 30.56847325 -1.0922792 26.08813598 -1.09487724 21.60776901 C-1.09672949 19.89569191 -1.10034629 18.18361581 -1.10573006 16.47154617 C-1.11295514 14.07947941 -1.11399032 11.68748602 -1.11352539 9.29541016 C-1.1189183 8.22618568 -1.1189183 8.22618568 -1.12442017 7.13536072 C-1.11405216 2.22810432 -1.11405216 2.22810432 0 0 Z " fill="#183E6F" transform="translate(571,600)"/>
<path d="M0 0 C3.3 0 6.6 0 10 0 C10 26.07 10 52.14 10 79 C6.04 79 2.08 79 -2 79 C-2.0462752 68.99500805 -2.08184462 58.99004142 -2.10362434 48.98496437 C-2.11407582 44.33954726 -2.12825979 39.69420319 -2.15087891 35.04882812 C-2.1725588 30.56846775 -2.18455834 26.08817778 -2.18975449 21.60776901 C-2.19345899 19.89568345 -2.20069266 18.18360188 -2.21146011 16.47154617 C-2.22591068 14.07941514 -2.22798067 11.68757758 -2.22705078 9.29541016 C-2.23424133 8.58259384 -2.24143188 7.86977753 -2.24884033 7.13536072 C-2.22810432 2.22810432 -2.22810432 2.22810432 0 0 Z " fill="#183E6F" transform="translate(245,600)"/>
</svg>
